# File created by Blade
# Date/Time:  Thu Jan 22 16:21:39 2015
# Frame Rate: 120.000 fps
#------------------------------------------------------
:FULLY-SPECIFIED
:DEGREES
2425
root 15.149722 36.494655 6.649195 -7.050088 1.648475 1.819809
RightUpLeg 10.892263 -5.580256 -18.107161
RightLeg 5.623169 -0.000000 -0.000000
RightFoot -7.109984 -21.392826 12.156663
RightToeBase 5.364572 -0.000000 -0.000000
LeftUpLeg -1.405949 -4.090653 5.447591
LeftLeg 28.157794 -0.000000 -0.000000
LeftFoot -15.470699 6.616983 -21.780679
LeftToeBase -1.642978 -0.000000 0.000000
Spine 16.074515 12.267290 -2.400953
RightShoulder -3.476164 -26.468541 -11.984612
RightArm 11.757682 -7.993702 67.938859
RightForeArm 12.025873 -0.000000 38.808284
RightHand 4.916001 0.000000 -9.703105
RightHandThumb1 -24.326973 -0.000000 -32.862282
LeftShoulder -33.464415 34.959250 0.303984
LeftArm 54.523633 -44.510304 -86.098160
LeftForeArm 13.128481 -0.000000 15.322911
LeftHand -26.689838 -0.000000 22.274385
LeftHandThumb1 -26.253704 0.000000 33.147579
Head -12.552849 52.196180 -15.415129
2426
root 15.320159 36.523784 6.603230 -7.140343 1.444653 1.757106
RightUpLeg 10.722487 -5.662095 -18.250995
RightLeg 5.679971 -0.000000 -0.000000
RightFoot -6.341531 -21.583229 12.145915
RightToeBase 5.374545 -0.000000 -0.000000
LeftUpLeg -1.067288 -3.844093 5.205734
LeftLeg 27.644277 -0.000000 -0.000000
LeftFoot -15.673144 6.922066 -21.478713
LeftToeBase -1.288858 -0.000000 0.000000
Spine 16.352764 12.289450 -2.342818
RightShoulder -3.235552 -26.486590 -12.177984
RightArm 12.135631 -8.357495 67.834796
RightForeArm 12.226136 -0.000000 38.075589
RightHand 4.638110 -0.000000 -9.384238
RightHandThumb1 -24.326973 -0.000000 -32.862282
LeftShoulder -33.080930 34.849851 0.316318
LeftArm 53.938083 -43.333660 -85.526288
LeftForeArm 14.317164 -0.000000 15.730025
LeftHand -26.453994 -0.000000 21.547379
LeftHandThumb1 -26.253704 0.000000 33.147579
Head -12.458340 51.396799 -15.341965
2427
root 15.487736 36.557558 6.553970 -7.234163 1.254065 1.705827
RightUpLeg 10.563236 -5.744009 -18.396696
RightLeg 5.708324 -0.000000 -0.000000
RightFoot -5.501501 -21.780872 12.082366
RightToeBase 5.355845 -0.000000 -0.000000
LeftUpLeg -0.689537 -3.774543 4.911399
LeftLeg 27.040853 -0.000000 -0.000000
LeftFoot -15.933765 7.418505 -21.298202
LeftToeBase -0.708544 -0.000000 0.000000
Spine 16.639394 12.272781 -2.298326
RightShoulder -3.011744 -26.455949 -12.328505
RightArm 12.489017 -8.736795 67.659252
RightForeArm 12.370605 -0.000000 37.476734
RightHand 4.416923 -0.000000 -8.825423
RightHandThumb1 -24.326973 -0.000000 -32.862282
LeftShoulder -32.716082 34.719885 0.297414
LeftArm 53.317902 -42.120529 -84.881943
LeftForeArm 15.382274 -0.000000 16.185409
LeftHand -26.302394 -0.000000 21.027243
LeftHandThumb1 -26.253704 0.000000 33.147579
Head -12.373702 50.655945 -15.294278
2428
root 15.649534 36.592336 6.502872 -7.266556 1.058264 1.654978
RightUpLeg 10.350876 -5.768657 -18.515180
RightLeg 5.707287 -0.000000 -0.000000
RightFoot -4.708505 -22.034538 12.221579
RightToeBase 5.535714 -0.000000 -0.000000
LeftUpLeg -0.379352 -3.726968 4.618051
LeftLeg 26.438195 -0.000000 -0.000000
LeftFoot -16.171673 7.978352 -21.141828
LeftToeBase -0.119537 -0.000000 0.000000
Spine 16.810418 12.325251 -2.277316
RightShoulder -2.875059 -26.489585 -12.375334
RightArm 12.845178 -9.100710 67.446444
RightForeArm 12.337072 -0.000000 37.013183
RightHand 4.226898 -0.000000 -8.414945
RightHandThumb1 -24.326973 -0.000000 -32.862282
LeftShoulder -32.215493 34.578354 0.418042
LeftArm 52.682322 -40.980593 -84.384569
LeftForeArm 16.528601 -0.000000 16.744110
LeftHand -26.111702 -0.000000 20.161747
LeftHandThumb1 -26.253704 0.000000 33.147579
Head -12.105993 49.855248 -15.018623
2429
root 15.803391 36.629157 6.438011 -7.239386 0.921024 1.591276
RightUpLeg 10.078079 -5.933646 -18.616887
RightLeg 5.708948 -0.000000 -0.000000
RightFoot -3.905743 -22.241264 12.348179
RightToeBase 5.579635 -0.000000 -0.000000
LeftUpLeg -0.169674 -3.853149 4.329561
LeftLeg 25.841121 -0.000000 -0.000000
LeftFoot -16.386555 8.609757 -21.058752
LeftToeBase 0.441375 -0.000000 -0.000000
Spine 16.937959 12.281305 -2.295836
RightShoulder -2.775551 -26.366784 -12.382391
RightArm 13.139151 -9.494696 67.216285
RightForeArm 12.156313 -0.000000 36.586681
RightHand 4.140039 0.000000 -7.724289
RightHandThumb1 -24.326973 -0.000000 -32.862282
LeftShoulder -31.710575 34.448855 0.606136
LeftArm 52.127537 -39.861273 -84.030771
LeftForeArm 17.887177 -0.000000 17.225805
LeftHand -26.022956 0.000000 19.593802
LeftHandThumb1 -26.253704 0.000000 33.147579
Head -11.912055 49.147537 -14.720571
2430
root 15.954666 36.667852 6.378550 -7.233201 0.766569 1.531262
RightUpLeg 9.831298 -6.097116 -18.718239
RightLeg 5.698161 -0.000000 -0.000000
RightFoot -3.092181 -22.456455 12.435164
RightToeBase 5.574649 -0.000000 -0.000000
LeftUpLeg 0.095874 -4.056441 4.031380
LeftLeg 25.198095 -0.000000 -0.000000
LeftFoot -16.555613 9.298310 -20.910830
LeftToeBase 0.940473 -0.000000 -0.000000
Spine 17.047178 12.200563 -2.332057
RightShoulder -2.642949 -26.265391 -12.397549
RightArm 13.449261 -9.836808 66.989543
RightForeArm 11.845534 -0.000000 36.302876
RightHand 3.871375 -0.000000 -6.940371
RightHandThumb1 -24.326973 -0.000000 -32.862282
LeftShoulder -31.251012 34.391805 0.753259
LeftArm 51.584371 -38.779118 -83.777975
LeftForeArm 19.197638 -0.000000 17.897712
LeftHand -25.614795 -0.000000 18.400048
LeftHandThumb1 -26.253704 0.000000 33.147579
Head -11.644005 48.392860 -14.346831
2431
root 16.101063 36.707837 6.310452 -7.177018 0.654303 1.421063
RightUpLeg 9.532044 -6.364685 -18.781608
RightLeg 5.731979 -0.000000 -0.000000
RightFoot -2.313749 -22.572275 12.695208
RightToeBase 5.591173 -0.000000 -0.000000
LeftUpLeg 0.271056 -4.361513 3.798242
LeftLeg 24.584618 -0.000000 -0.000000
LeftFoot -16.713128 9.935904 -20.867728
LeftToeBase 1.501538 -0.000000 -0.000000
Spine 17.094694 12.024851 -2.335080
RightShoulder -2.513144 -26.152611 -12.403908
RightArm 13.761837 -10.198740 66.722368
RightForeArm 11.463847 -0.000000 36.123964
RightHand 3.669849 -0.000000 -6.199139
RightHandThumb1 -24.326973 -0.000000 -32.862282
LeftShoulder -30.899087 34.402655 0.819370
LeftArm 51.260337 -37.739420 -83.774365
LeftForeArm 20.517457 -0.000000 18.565199
LeftHand -25.094391 0.000000 16.988759
LeftHandThumb1 -26.253704 0.000000 33.147579
Head -11.374176 47.623060 -13.943124
2432
root 16.241719 36.747493 6.243397 -7.097800 0.521056 1.314139
RightUpLeg 9.214284 -6.666132 -18.822668
RightLeg 5.717577 -0.000000 -0.000000
RightFoot -1.493530 -22.861740 12.695466
RightToeBase 5.812716 -0.000000 -0.000000
LeftUpLeg 0.452384 -4.660685 3.582701
LeftLeg 23.926963 -0.000000 -0.000000
LeftFoot -16.837056 10.491241 -20.817041
LeftToeBase 2.037218 -0.000000 -0.000000
Spine 17.102680 11.862356 -2.366762
RightShoulder -2.461304 -26.079805 -12.369162
RightArm 14.146822 -10.489767 66.471841
RightForeArm 10.853179 -0.000000 36.037443
RightHand 3.453388 -0.000000 -5.311966
RightHandThumb1 -24.326973 -0.000000 -32.862282
LeftShoulder -30.601257 34.455094 0.839498
LeftArm 50.992394 -36.664355 -83.748730
LeftForeArm 21.714539 0.000000 19.263137
LeftHand -24.625872 0.000000 15.540447
LeftHandThumb1 -26.253704 0.000000 33.147579
Head -11.132272 46.831539 -13.509755
2433
root 16.375896 36.786865 6.176927 -7.042581 0.379655 1.176796
RightUpLeg 8.922334 -6.921189 -18.818048
RightLeg 5.711125 -0.000000 -0.000000
RightFoot -0.714285 -23.065131 12.795378
RightToeBase 5.906214 -0.000000 -0.000000
LeftUpLeg 0.672975 -4.956553 3.418021
LeftLeg 23.247652 -0.000000 -0.000000
LeftFoot -16.944024 11.050083 -20.740398
LeftToeBase 2.528126 -0.000000 -0.000000
Spine 17.144792 11.648658 -2.371373
RightShoulder -2.367551 -25.878930 -12.375124
RightArm 14.393563 -10.781923 66.287046
RightForeArm 10.367065 0.000000 36.090801
RightHand 3.262203 -0.000000 -4.847764
RightHandThumb1 -24.326973 -0.000000 -32.862282
LeftShoulder -30.331454 34.358880 0.892199
LeftArm 50.640263 -35.637161 -83.700151
LeftForeArm 22.892170 -0.000000 19.897870
LeftHand -24.054232 -0.000000 13.803661
LeftHandThumb1 -26.253704 0.000000 33.147579
Head -10.966033 46.114709 -13.110834
2434
root 16.506215 36.824279 6.104684 -6.976054 0.197707 1.020073
RightUpLeg 8.573632 -7.130178 -18.764368
RightLeg 5.726340 -0.000000 -0.000000
RightFoot 0.031592 -23.346798 13.046459
RightToeBase 5.672482 -0.000000 -0.000000
LeftUpLeg 0.905019 -5.216925 3.297205
LeftLeg 22.519565 -0.000000 -0.000000
LeftFoot -17.045512 11.559454 -20.680745
LeftToeBase 3.061128 -0.000000 -0.000000
Spine 17.164371 11.478593 -2.334992
RightShoulder -2.266430 -25.740272 -12.420449
RightArm 14.631545 -10.941059 66.188664
RightForeArm 9.681925 -0.000000 36.294942
RightHand 3.114454 0.000000 -3.893367
RightHandThumb1 -24.326973 -0.000000 -32.862282
LeftShoulder -30.066319 34.308315 0.909099
LeftArm 50.357049 -34.507791 -83.574836
LeftForeArm 23.430603 0.000000 20.436200
LeftHand -23.530660 -0.000000 12.600587
LeftHandThumb1 -26.253704 0.000000 33.147579
Head -10.760727 45.342796 -12.699827
2435
root 16.628030 36.858991 6.035282 -6.930889 0.034322 0.836744
RightUpLeg 8.257710 -7.370187 -18.671562
RightLeg 5.731329 -0.000000 -0.000000
RightFoot 0.742816 -23.652654 13.166764
RightToeBase 5.496573 -0.000000 -0.000000
LeftUpLeg 1.159674 -5.383502 3.248689
LeftLeg 21.790823 -0.000000 -0.000000
LeftFoot -17.105519 11.900696 -20.611037
LeftToeBase 3.539378 -0.000000 -0.000000
Spine 17.236975 11.288057 -2.286220
RightShoulder -2.227146 -25.670547 -12.419778
RightArm 14.946073 -11.100807 66.053555
RightForeArm 9.043069 -0.000000 36.638888
RightHand 2.953272 -0.000000 -3.372991
RightHandThumb1 -24.326973 -0.000000 -32.862282
LeftShoulder -29.898579 34.283799 0.836399
LeftArm 50.292055 -33.406361 -83.571386
LeftForeArm 24.134197 0.000000 20.919461
LeftHand -23.029434 -0.000000 11.163020
LeftHandThumb1 -26.253704 0.000000 33.147579
Head -10.723013 44.626226 -12.353338
